<svg xmlns="http://www.w3.org/2000/svg" viewBox="0 0 253 269" width="64" height="64">
	<path fill="#2b3031" d="m106 28.9c-3 0.5-8.7 1.6-12.5 2.6-3.8 1-9.7 3-13 4.4-3.3 1.5-8.7 4.6-12 6.8-3.3 2.3-7.4 5.6-9.1 7.4-1.7 1.9-4.6 5.4-6.3 7.9-1.7 2.5-3.8 7-4.7 10-1.4 4.7-2.3 6-6.7 9-2.7 1.9-7 5.8-9.5 8.5-2.5 2.8-5.6 7.3-6.8 10l-2.4 5c0 89.5 0 90.6 2.2 96.3 1.4 3.6 4.1 7.7 7.4 11.2 2.8 3 8.3 7.3 12 9.6 3.8 2.2 9.8 5.2 13.4 6.7 3.6 1.4 10.1 3.5 14.5 4.7 4.4 1.1 12.3 2.7 17.5 3.5 5.2 0.8 14.2 1.7 20 2.1 6 0.4 15.9 0.2 23-0.5 6.9-0.6 16.1-1.9 20.5-2.7 4.4-0.9 10.9-2.4 14.5-3.4 3.6-1.1 9.9-3.3 14-5 4.1-1.7 10.6-5.2 14.5-7.8 3.8-2.6 8.8-7.2 11.2-10.2 2.4-3 5-7.5 5.8-10 1.3-3.8 1.5-11.5 1.3-50l-0.3-45.5c-3.6-7-6.3-11-8.4-13.4-2-2.5-6.3-6.6-9.6-9.2-4.9-3.8-6.2-5.5-7.2-9-0.6-2.4-2.9-7.1-5.1-10.4-2.2-3.3-6.1-7.9-8.8-10.1-2.7-2.3-7.8-5.8-11.4-7.7-3.6-2-9.2-4.6-12.5-5.7-3.3-1.2-8.9-2.7-12.5-3.5-3.6-0.7-11.2-1.5-17-1.8-5.8-0.3-13-0.2-16 0.2z"/>
	<path fill="#c22b24" d="m105 40.5c-4.7 0.7-11.7 2.4-15.5 3.7-3.8 1.3-9.6 3.9-12.9 5.8-3.2 1.9-7.7 5.5-10 8-2.2 2.5-5 6.4-6.1 8.5-1 2.3-2.1 6.8-2.3 10.5-0.3 5.1 0 7.5 1.6 11 1.2 2.5 4.5 6.7 7.4 9.5 3 2.8 8.3 6.3 12.3 8.1 3.8 1.7 11 4.2 16 5.4 7.4 1.9 11.7 2.3 24.5 2.3 12.9 0 16.9-0.4 23.5-2.2 4.4-1.2 10.9-3.6 14.5-5.3 4.3-2 8.8-5.4 13.1-9.7 5.2-5.2 6.8-7.6 7.9-11.6 0.7-2.8 1.1-6.8 0.8-9-0.2-2.2-1.5-6.3-2.8-9-1.4-2.8-4.5-7-7-9.4-2.5-2.4-7.2-5.8-10.5-7.7-3.3-1.8-8.9-4.3-12.5-5.4-3.6-1.2-10.8-2.8-16-3.5-5.2-0.8-11.3-1.4-13.5-1.4-2.2 0.1-7.8 0.7-12.5 1.4z"/>
	<path fill="#888889" class="s2" d="m41.7 90.3c-1.9 2.3-4.1 5.5-5 7.2-0.8 1.7-1.8 4.3-2.1 6-0.4 1.7-0.3 4.9 0.3 7.3 0.7 2.7 2.8 6 5.8 9.3 3 3.1 7.7 6.5 12.3 8.9 4.1 2.1 11.3 5 16 6.4 4.7 1.4 12.5 3.3 17.5 4.2 5 0.9 16.9 1.9 27 2.1 10.8 0.3 22.2 0.1 28.5-0.6 5.8-0.7 14.8-2.3 20-3.6 5.2-1.3 12-3.3 15-4.5 3-1.2 8-3.7 11-5.5 3-1.8 7-5 8.9-7.1 1.9-2.2 4-5.4 4.8-7.1 0.7-1.8 1.3-5 1.3-7 0-2.1-1-5.8-2.1-8.3-1.1-2.5-3.4-6.2-5-8.2-1.6-2.1-3.2-3.8-3.7-3.8-0.4 0-2 3-3.7 6.7-1.9 4.3-4.8 8.6-8 11.8-2.7 2.8-7.7 6.7-11 8.6-3.3 2-9.2 4.7-13 6.1-3.8 1.5-10.8 3.3-15.5 4.1-4.7 0.9-11.7 1.9-15.5 2.2-3.8 0.4-11.7 0.2-17.5-0.4-5.8-0.6-14.1-2-18.5-3.1-4.4-1.2-11.8-3.9-16.5-6.1-6-2.9-10.4-5.9-14.8-10.3-3.5-3.3-7.4-8.3-8.8-11.1-1.3-2.7-2.4-5.8-2.4-6.8 0-0.9-0.4-1.7-0.9-1.7-0.6 0-2.5 1.9-4.4 4.3z"/>
	<path fill="none" stroke="#000000" stroke-opacity="0.5" stroke-miterlimit="100" d="m0 134.5v134.5h253v-269h-253zm106-105.6c-3 0.5-8.7 1.6-12.5 2.6-3.8 1-9.7 3-13 4.4-3.3 1.5-8.7 4.6-12 6.8-3.3 2.3-7.4 5.6-9.1 7.4-1.7 1.9-4.6 5.4-6.3 7.9-1.7 2.5-3.8 7-4.7 10-1.4 4.7-2.3 6-6.7 9-2.7 1.9-7 5.7-9.5 8.5-2.5 2.7-5.6 7.2-6.8 10l-2.4 5c0 89.5 0 90.6 2.2 96.3 1.4 3.6 4.1 7.7 7.4 11.2 2.8 3 8.3 7.3 12 9.6 3.8 2.2 9.8 5.2 13.4 6.7 3.6 1.4 10.1 3.5 14.5 4.7 4.4 1.1 12.3 2.7 17.5 3.5 5.2 0.8 14.2 1.7 20 2.1 6 0.4 15.9 0.2 23-0.5 6.9-0.6 16.1-1.9 20.5-2.7 4.4-0.9 10.9-2.4 14.5-3.4 3.6-1.1 9.9-3.3 14-5 4.1-1.7 10.6-5.2 14.5-7.8 3.8-2.6 8.8-7.2 11.2-10.2 2.4-3 5-7.5 5.8-10 1.3-3.8 1.5-11.5 1.3-50l-0.3-45.5c-3.6-7-6.3-11-8.4-13.4-2-2.5-6.3-6.6-9.6-9.2-4.9-3.8-6.2-5.5-7.2-9-0.6-2.4-2.9-7.1-5.1-10.4-2.2-3.3-6.1-7.9-8.8-10.1-2.7-2.3-7.8-5.8-11.4-7.7-3.6-2-9.2-4.6-12.5-5.7-3.3-1.2-8.9-2.7-12.5-3.5-3.6-0.7-11.2-1.5-17-1.8-5.8-0.3-13-0.2-16 0.2zm-1 11.6c-4.7 0.7-11.7 2.4-15.5 3.7-3.8 1.3-9.6 3.9-12.9 5.8-3.2 1.9-7.7 5.5-10 8-2.2 2.5-5 6.4-6.1 8.5-1 2.3-2.1 6.8-2.3 10.5-0.3 5.1 0 7.5 1.6 11 1.2 2.5 4.5 6.7 7.4 9.5 3 2.8 8.3 6.3 12.3 8.1 3.8 1.7 11 4.2 16 5.4 7.4 1.9 11.7 2.3 24.5 2.3 12.9 0 16.9-0.4 23.5-2.2 4.4-1.2 10.9-3.6 14.5-5.3 4.3-2 8.8-5.4 13.1-9.7 5.2-5.2 6.8-7.6 7.9-11.6 0.7-2.8 1.1-6.8 0.8-9-0.2-2.2-1.5-6.3-2.8-9-1.4-2.8-4.5-7-7-9.4-2.5-2.4-7.2-5.8-10.5-7.7-3.3-1.8-8.9-4.3-12.5-5.4-3.6-1.2-10.8-2.8-16-3.5-5.2-0.8-11.3-1.4-13.5-1.4-2.2 0.1-7.8 0.7-12.5 1.4zm-63.3 49.7c-1.9 2.4-4.1 5.6-5 7.3-0.8 1.6-1.8 4.3-2.1 6-0.4 1.6-0.3 4.9 0.3 7.2 0.7 2.8 2.8 6.1 5.8 9.4 3 3.1 7.7 6.5 12.3 8.9 4.1 2.1 11.3 5 16 6.4 4.7 1.4 12.5 3.3 17.5 4.2 5 0.9 16.9 1.9 27 2.1 10.8 0.3 22.2 0.1 28.5-0.6 5.8-0.7 14.8-2.3 20-3.6 5.2-1.3 12-3.3 15-4.5 3-1.2 8-3.7 11-5.5 3-1.8 7-5 8.9-7.1 1.9-2.2 4-5.4 4.8-7.2 0.7-1.7 1.3-4.9 1.3-7 0-2-1-5.7-2.1-8.2-1.1-2.5-3.4-6.2-5-8.3-1.6-2-3.2-3.7-3.7-3.7-0.4 0-2 3-3.7 6.7-1.9 4.3-4.8 8.6-8 11.8-2.7 2.8-7.7 6.7-11 8.6-3.3 2-9.2 4.7-13 6.1-3.8 1.5-10.8 3.3-15.5 4.1-4.7 0.9-11.7 1.9-15.5 2.2-3.8 0.4-11.7 0.2-17.5-0.4-5.8-0.6-14.1-2-18.5-3.1-4.4-1.2-11.8-3.9-16.5-6.1-6-2.9-10.4-5.9-14.8-10.3-3.5-3.3-7.4-8.4-8.8-11.1-1.3-2.8-2.4-5.8-2.4-6.8 0-0.9-0.4-1.7-0.9-1.7-0.6 0-2.5 1.9-4.4 4.2z"/>
</svg>