<svg version="1.2" xmlns="http://www.w3.org/2000/svg" viewBox="0 0 173 256" width="64" height="64">
	<path fill="#2b2f30" d="m50.5 15.2c-1.6 0.6-3.8 1.8-4.9 2.7-1 0.9-2.5 3.1-3.2 4.9-1 2.3-1.4 8.7-1.4 23.7 0 20.5 0 20.5-2.2 21-1.3 0.2-4.1 1.9-6.2 3.7-2.1 1.8-4.8 5.1-6 7.3-2.1 3.9-2.1 4.8-2.1 69.5v65.5c4.1 7.8 6.8 11.4 8.7 13.2 1.8 1.7 5.3 4.1 7.8 5.2 4.3 1.9 6.4 2.1 41.5 2.1 26.6 0 38.1-0.4 40.9-1.3 2.2-0.6 6.2-3.2 9-5.7 2.7-2.5 6-6.7 7.3-9.5l2.3-5c0-102.4-0.4-128.5-1-130.8-0.6-2-2.7-5.6-4.7-7.8-2.1-2.3-5.6-5.1-7.8-6.3-3.8-2-5.6-2.1-32.3-2.3l-28.2-0.3c-0.5-40.4-0.6-42.1-2.6-44.7-1.1-1.5-3.2-3.3-4.5-4-1.3-0.6-3.5-1.4-4.9-1.7-1.4-0.3-3.9 0-5.5 0.6z"/>
	<path fill="#bbb7a9" d="m55.1 96.8c-1.2 0.7-1.4 3.6-1 16.3l0.4 15.4 57.5 0.5v-31.5c-24.4-1.2-36.9-1.5-43.5-1.5-6.6 0-12.6 0.4-13.4 0.8z"/>
	<path fill="#34393b" d="m47 136.3c-1.1 1.2-4 4.4-6.5 7.2l-4.4 5-0.1 57 18 18c30.6 0.6 43.5 0.4 48.5 0.1 7.7-0.5 9.5-1 12.6-3.4 1.9-1.5 6.4-5.3 10-8.5l6.4-5.8c0.6-46.1 0.3-56.3-0.4-58.2-0.6-1.5-2.2-3.1-3.6-3.7-1.4-0.6-3.2-2.4-4-4-0.8-1.7-2.5-3.7-3.7-4.5-1.3-0.8-3.2-1.5-4.3-1.5-1.1 0-3.5 1.4-5.2 3.2-1.8 1.8-3.3 3.9-3.3 4.5 0 0.7-1.1 3-2.5 5-1.5 2.2-2.5 5.2-2.5 7 0 1.8 0.5 3.5 1 3.8 0.5 0.3 2.2 2.9 3.6 5.7 2.2 4.3 2.6 6.2 2.2 10.3-0.3 2.7-1.3 6.5-2.2 8.2-0.9 1.8-3.6 5.3-6.1 7.8-2.5 2.5-6.3 5.4-8.5 6.5-2.4 1.2-6 2-9 2-3.3 0-6.3-0.7-8.8-2.2-2-1.1-5.6-4-8-6.2-2.4-2.3-5.3-5.9-6.4-8.1-1.6-3.1-2-5.4-1.7-10.6 0.3-5.1 1-7.4 3.1-10.5 1.8-2.5 2.8-5.2 2.8-7.7 0-2.5-0.8-4.7-2.5-6.7-1.4-1.7-2.5-3.9-2.5-5 0-1.1-1.4-3.1-3-4.5-1.6-1.4-3.9-2.5-5-2.5-1.2 0-3 1-4 2.2z"/>
	<path fill="#ab4e4b" d="m76.3 160c-1.8 1.1-4.2 3.5-5.3 5.3-1.1 1.7-2 4.7-2 6.5 0 1.7 0.6 4.4 1.4 6 0.8 1.5 2.6 3.8 4.1 5.2 2.3 2.1 3.6 2.5 9.2 2.5 6.1 0 6.6-0.2 9.7-3.5 1.9-2 3.5-5.1 3.9-7.3 0.5-2.7 0.2-4.9-1.3-8.2-1.2-2.7-3.3-5.3-5.2-6.5-1.9-1.1-5.1-2-7.3-2-2.2 0-5.4 0.9-7.2 2z"/>
	<path fill="none" stroke="#000000" stroke-opacity="0.5" stroke-miterlimit="100" d="m0 128v128h173v-256h-173zm50.5-112.8c-1.6 0.6-3.8 1.8-4.9 2.7-1 0.9-2.5 3.1-3.2 4.8-1 2.4-1.4 8.8-1.4 23.8 0 20.5 0 20.5-2.2 21-1.3 0.2-4.1 1.9-6.2 3.7-2.1 1.8-4.8 5.1-6 7.3-2.1 3.9-2.1 4.8-2.1 69.5v65.5c4.1 7.7 6.8 11.4 8.7 13.2 1.8 1.7 5.3 4.1 7.8 5.2 4.3 1.9 6.4 2.1 41.5 2.1 26.6 0 38.1-0.4 40.9-1.3 2.2-0.6 6.2-3.2 9-5.7 2.7-2.5 6-6.7 7.3-9.5l2.3-5c0-102.4-0.4-128.5-1-130.8-0.6-2-2.7-5.6-4.7-7.8-2.1-2.3-5.6-5.1-7.8-6.3-3.8-2-5.6-2.1-32.3-2.3l-28.2-0.3c-0.5-40.4-0.6-42.1-2.6-44.7-1.1-1.5-3.2-3.3-4.5-4-1.3-0.6-3.5-1.4-4.9-1.7-1.4-0.3-3.9 0-5.5 0.6zm4.6 81.6c-1.2 0.7-1.4 3.6-1 16.3l0.4 15.4 57.5 0.5v-31.5c-24.4-1.2-36.9-1.5-43.5-1.5-6.6 0-12.6 0.4-13.4 0.8zm-8.1 39.5c-1.1 1.2-4 4.5-6.5 7.2l-4.4 5-0.1 57 18 18c30.6 0.6 43.5 0.4 48.5 0.1 7.7-0.5 9.5-1 12.6-3.4 1.9-1.5 6.4-5.3 10-8.5l6.4-5.8c0.6-46.1 0.3-56.3-0.4-58.1-0.6-1.6-2.2-3.2-3.6-3.8-1.4-0.5-3.2-2.3-4-4-0.8-1.6-2.5-3.7-3.7-4.5-1.3-0.8-3.2-1.5-4.3-1.5-1.1 0-3.5 1.4-5.2 3.2-1.8 1.8-3.3 3.9-3.3 4.6 0 0.6-1.1 2.9-2.5 5-1.5 2.1-2.5 5.1-2.5 7 0 1.7 0.5 3.4 1 3.7 0.5 0.3 2.2 2.9 3.6 5.8 2.2 4.2 2.6 6.1 2.2 10.2-0.3 2.8-1.3 6.5-2.2 8.3-0.9 1.7-3.6 5.2-6.1 7.7-2.5 2.5-6.3 5.4-8.5 6.5-2.4 1.2-6 2-9 2-3.3 0-6.3-0.7-8.8-2.2-2-1.1-5.6-4-8-6.2-2.4-2.3-5.3-5.9-6.4-8.1-1.6-3.1-2-5.4-1.7-10.6 0.3-5.1 1-7.4 3.1-10.5 1.8-2.5 2.8-5.2 2.8-7.6 0-2.6-0.8-4.8-2.5-6.8-1.4-1.6-2.5-3.9-2.5-5 0-1.1-1.3-3.1-3-4.5-1.6-1.4-3.9-2.5-5-2.5-1.2 0-3 1-4 2.3zm29.3 23.7c-1.8 1.1-4.2 3.5-5.3 5.3-1.1 1.7-2 4.7-2 6.5 0 1.7 0.6 4.4 1.4 6 0.8 1.5 2.6 3.8 4.1 5.2 2.3 2.1 3.6 2.5 9.2 2.5 6.1 0 6.6-0.2 9.7-3.5 1.9-2 3.5-5.1 3.9-7.2 0.5-2.8 0.2-5-1.3-8.3-1.2-2.7-3.3-5.3-5.2-6.5-1.9-1.1-5.1-2-7.3-2-2.2 0-5.4 0.9-7.2 2z"/>
</svg>