<svg version="1.2" xmlns="http://www.w3.org/2000/svg" viewBox="0 0 119 252" width="64" height="64">
	<path fill="#1f2523" d="m51.5 10.4c-2.8 0.7-6.4 2-8 2.8-1.6 0.9-4.7 3.4-6.7 5.5-2 2.1-4.6 5.8-5.7 8.3-2 4.4-2.1 6.3-2.1 66.5v62c-7.8 8.5-11.4 13.7-13 17-1.6 3.3-3.4 9-4 12.8-0.7 4.6-0.7 8.8 0.1 13.4 0.5 3.8 2.3 9.5 3.9 12.8 1.6 3.3 4.8 8.2 7.2 10.9 2.4 2.7 6.8 6.6 9.8 8.6 3 2 8.4 4.4 12 5.4 5 1.4 8.6 1.7 15.5 1.4 7.1-0.4 10.4-1.2 15.5-3.5 3.6-1.6 8.9-5.1 11.9-7.8 2.9-2.8 6.6-6.8 8.1-9 1.5-2.2 3.6-6.5 4.7-9.5 1.1-3 2.3-8 2.7-11 0.4-3 0.2-8.4-0.4-12-0.5-3.6-2.4-9.3-4-12.8-1.7-3.4-5.2-8.6-8-11.5l-4.9-5.2c-0.1-110.4-0.3-121.9-1.5-126-0.9-3.1-3.1-6.9-5.8-9.8-2.4-2.8-6.5-5.9-9.3-7.2-2.8-1.3-6.8-2.5-9-2.8-2.2-0.3-6.3 0-9 0.7z"/>
	<path fill="#bcb8a9" d="m49.1 22.8c-1.9 0.9-4.6 3.2-6 5.1l-2.6 3.4-0.5 57.7h14v-43l6.5 0.5 0.5 117c6.6 1.8 10.5 3.8 13 5.7 2.5 1.9 5.5 5 6.8 6.9 1.3 1.8 3 5.9 3.9 8.9 1.1 3.9 1.4 7.3 0.9 11.5-0.4 3.3-1.8 8.2-3.2 11-1.4 2.7-3.2 5.7-4 6.5-0.9 0.9-1.3 2.4-1 3.7 0.3 1.3 1.1 2.3 1.6 2.3 0.5 0 2.9-2.2 5.2-4.8 3.1-3.4 5-7 6.7-12.2 1.9-5.8 2.3-8.9 1.9-13.5-0.3-3.5-1.6-8.5-3.2-12q-2.8-6-8.7-11.5l-5.8-5.5c-0.1-101.2-0.5-125.3-1.1-127.5-0.6-1.9-2.3-4.8-3.8-6.3-1.5-1.6-3.9-3.5-5.5-4.3-1.5-0.8-4.8-1.4-7.5-1.4-2.6 0-6.2 0.8-8.1 1.8z"/>
	<path fill="#1f2523" d="m54 106.2c-0.1 54.6 0.1 60.4 1.5 61.8 1.3 1.1 2.1 1.2 3.3 0.4 1.6-1 1.7-6.3 1.7-61.5v-60.4l-6.4-0.6z"/>
	<path fill="#c02a23" d="m40 124.8v35.7c-7.9 7.8-11.3 11.7-12.6 13.8-1.3 2-3.1 6.5-4 9.9-1.1 4.4-1.4 8-0.9 11.8 0.4 3 1.7 7.7 3 10.5 1.2 2.7 3.5 6.5 5.1 8.4 1.6 1.9 5.2 4.9 7.9 6.6 2.7 1.7 6.8 3.7 9 4.4 2.4 0.8 7.2 1.2 12 0.9 6.2-0.2 9.3-0.9 13.8-3.1 5.3-2.5 5.6-2.9 4.6-5-0.9-1.8-0.6-2.9 1.8-6.7 1.7-2.5 3.6-6.1 4.4-8 0.8-2 1.4-6.8 1.4-11-0.1-5.8-0.6-8.7-2.5-12.9-1.4-3-4.3-7-6.5-8.9-2.2-2-5.8-4.4-8-5.4-2.2-0.9-4.8-1.8-5.8-1.8-0.9 0-1.9 0.9-2.2 2-0.3 1.1-1.2 2.2-2 2.5-0.8 0.3-2.2-0.1-3-0.8-1.4-1-1.6-6.2-1.5-40v-38.7h-14z"/>
	<path fill="none" stroke="#000000" stroke-opacity="0.5" stroke-miterlimit="100" d="m0 126v126h119v-252h-119zm51.5-115.6c-2.8 0.7-6.4 2-8 2.8-1.6 0.9-4.7 3.4-6.7 5.5-2 2.1-4.6 5.8-5.7 8.3-2 4.4-2.1 6.3-2.1 66.5v62c-7.8 8.5-11.4 13.7-13 17-1.6 3.3-3.4 9-4 12.7-0.7 4.7-0.7 8.9 0.1 13.5 0.5 3.8 2.3 9.5 3.9 12.8 1.6 3.3 4.8 8.2 7.2 10.9 2.4 2.7 6.8 6.6 9.8 8.6 3 2 8.4 4.4 12 5.4 5 1.4 8.6 1.7 15.5 1.4 7.1-0.4 10.4-1.2 15.5-3.5 3.6-1.6 8.9-5.1 11.9-7.8 2.9-2.8 6.6-6.8 8.1-9 1.5-2.2 3.6-6.5 4.7-9.5 1.1-3 2.3-8 2.7-11 0.4-3 0.2-8.4-0.4-12-0.5-3.6-2.4-9.3-4-12.8-1.7-3.4-5.2-8.6-8-11.5l-4.9-5.2c-0.1-110.4-0.3-121.9-1.5-126-0.9-3.1-3.1-6.9-5.8-9.8-2.4-2.8-6.5-5.9-9.3-7.2-2.8-1.3-6.8-2.5-9-2.8-2.2-0.3-6.3 0-9 0.7zm-2.4 12.4c-1.9 0.9-4.6 3.2-6 5.1l-2.6 3.4-0.5 57.7h14v-43l6.5 0.5 0.5 117c6.6 1.8 10.5 3.8 13 5.7 2.5 1.9 5.5 5 6.8 6.9 1.3 1.8 3 5.9 3.9 8.9 1.1 3.9 1.4 7.3 0.9 11.5-0.4 3.3-1.8 8.2-3.2 11-1.4 2.7-3.2 5.7-4 6.5-0.9 0.9-1.3 2.4-1 3.7 0.3 1.3 1.1 2.3 1.6 2.3 0.5 0 2.9-2.2 5.3-4.8 3-3.4 4.9-7 6.6-12.2 1.9-5.8 2.3-8.9 1.9-13.5-0.3-3.5-1.6-8.5-3.2-12q-2.8-6-8.7-11.5l-5.8-5.5c-0.1-101.2-0.5-125.3-1.1-127.5-0.6-1.9-2.3-4.8-3.8-6.3-1.5-1.6-3.9-3.5-5.4-4.3-1.6-0.8-4.9-1.4-7.5-1.4-2.7 0-6.3 0.8-8.2 1.8zm4.9 83.4c-0.1 54.6 0.1 60.4 1.5 61.8 1.3 1.1 2.1 1.2 3.3 0.4 1.6-1 1.7-6.3 1.7-61.5v-60.4l-6.4-0.6zm-14 18.5v35.8c-7.9 7.7-11.3 11.7-12.6 13.7-1.3 2.1-3.1 6.6-4 10-1.1 4.4-1.4 7.9-0.9 11.8 0.4 3 1.7 7.7 3 10.5 1.2 2.7 3.5 6.5 5.1 8.4 1.6 1.9 5.2 4.9 7.9 6.6 2.8 1.7 6.8 3.7 9 4.4 2.4 0.8 7.2 1.1 12 0.9 6.2-0.2 9.3-0.9 13.8-3.1 5.3-2.5 5.6-2.9 4.6-5-0.9-1.8-0.6-3 1.9-6.7 1.6-2.5 3.5-6.1 4.3-8 0.8-2 1.4-6.8 1.4-11 0-5.8-0.6-8.7-2.5-12.9-1.4-3-4.3-7-6.5-8.9-2.2-2-5.8-4.4-8-5.4-2.2-1-4.8-1.8-5.7-1.8-1 0-2 0.9-2.3 2-0.3 1.1-1.2 2.2-2 2.5-0.8 0.3-2.2-0.1-3-0.8-1.4-1.1-1.6-6.2-1.5-40v-38.7h-14z"/>
</svg>